<?xml version="1.0" ?><svg viewBox="0 0 60 60" xmlns="http://www.w3.org/2000/svg"><title/><g id="text"><text font-family="MyriadPro-Regular, Myriad Pro" font-size="9" transform="translate(2.50439 -49.60986)"><tspan letter-spacing="-0.03299em"/><tspan x="7.31689" y="0"/><tspan letter-spacing="-0.00602em" x="26.36035" y="0"/><tspan x="30.54492" y="0"/><tspan letter-spacing="-0.03098em" x="36.0166" y="0"/><tspan x="40.12061" y="0"/><tspan letter-spacing="-0.00998em" x="45.06152" y="0"/><tspan x="47.91455" y="0"/><tspan letter-spacing="-0.00298em" x="14.45801" y="10.7998"/><tspan x="19.93896" y="10.7998"/></text></g><g data-name="Layer 1" id="Layer_1"><path d="M45,54h-.5481c.71265-2.71387-1.19922-3.75043-2.531-4.4668-1.51953-.81738-2.6377-1.41895-2.0625-3.8623A6.86782,6.86782,0,0,0,41.501,44.30957a3.8281,3.8281,0,0,0,.76245-1.3338,3.64426,3.64426,0,0,0,2.41626-1.76288,3.69326,3.69326,0,0,0,.21484-3.66016,1.11983,1.11983,0,0,0-.06641-.11426c-3.30176-4.86816-2.10645-9.5498-.8418-14.50684,1.33887-5.24609,2.72266-10.6709-1.16211-16.498A13.02252,13.02252,0,0,0,37.0719,1.34973L36.98633.83594A.99994.99994,0,0,0,35.14258.48535L33.60571,3.04688C28.04907,3.76514,25.34448,7.03943,22.96,9.93945c-1.56934,1.9082-3.05176,3.71-5.19629,4.62012a3.57429,3.57429,0,0,0-2.00781,2.9082,6.92458,6.92458,0,0,0,.11035,2.84766,6.15853,6.15853,0,0,1,.13867.78027A.9992.9992,0,0,0,17,22a7.49183,7.49183,0,0,0,1.31372-.13055,4.07562,4.07562,0,0,0,2.03882,2.09442,3.62,3.62,0,0,0,1.37891.26074,10.57714,10.57714,0,0,0,4.00879-1.19141c.51147-.22577,1.02808-.44855,1.52783-.63354a32.44612,32.44612,0,0,1-5.356,6.42651c-3.2959,3.34082-6.4082,6.49512-6.13086,10.22363.16895,2.2666,1.58887,4.4082,4.34082,6.53809.62012,2.5127-.50684,3.11914-2.043,3.94531-1.33179.71637-3.24365,1.75293-2.531,4.4668H15a.99942.99942,0,0,0-1,1v4a.99942.99942,0,0,0,1,1H45a.99942.99942,0,0,0,1-1V55A.99942.99942,0,0,0,45,54ZM41.168,7.55469c3.38281,5.07422,2.167,9.83887.87988,14.88184-1.31348,5.14941-2.67187,10.47168,1.083,16.0625a1.70291,1.70291,0,0,1-.11816,1.60547,2.216,2.216,0,0,1-.65747.71863,4.13325,4.13325,0,0,0-.98022-1.86121c-5.15527-5.623-3.8125-10.77832-2.38965-16.23633C40.31055,17.63574,41.68164,12.374,37.95117,6.627l-.47461-2.84851A12.25323,12.25323,0,0,1,41.168,7.55469ZM24.93262,21.20313c-1.42871.62988-2.9043,1.28516-3.8252.9082a1.87252,1.87252,0,0,1-.848-.82068A8.03,8.03,0,0,0,22.707,19.707.99989.99989,0,0,0,21.293,18.293a6.64511,6.64511,0,0,1-3.46289,1.64258l-.01172-.05664a5.02387,5.02387,0,0,1-.082-2.1377,1.668,1.668,0,0,1,.80859-1.33984c2.59668-1.10254,4.30664-3.18164,5.96-5.19141C26.573,8.69427,28.54675,6.30273,32.229,5.34125l-.08643.1441a1,1,0,1,0,1.71484,1.0293L35.46,3.84375l.55371,3.32031a1.01174,1.01174,0,0,0,.1543.39063,12.509,12.509,0,0,1,2.15942,8.06152C35.65894,19.998,31.99011,20.00775,29.11035,20H29A10.66492,10.66492,0,0,0,24.93262,21.20313ZM17.77539,38.90137c-.21-2.82227,2.59277-5.66309,5.55957-8.66992,2.51819-2.55182,5.0979-5.19061,6.34229-8.23865,2.34985-.03479,5.39355-.21149,8.06592-2.55988-.208.92255-.44922,1.85022-.69336,2.78778-1.49414,5.73633-3.04,11.668,2.85156,18.09277a1.99338,1.99338,0,0,1,.10156,2.66992A4.806,4.806,0,0,1,38.72046,44h-17.373C19.07666,42.24017,17.89966,40.57031,17.77539,38.90137Zm1.252,12.39258c1.48376-.79773,3.63794-1.968,3.199-5.29395H37.77368c-.439,3.32593,1.71521,4.49622,3.199,5.29395,1.42871.76892,2.03833,1.116,1.38074,2.70605H17.64661C16.989,52.40991,17.59863,52.06287,19.02734,51.29395ZM44,58H16V56H44Z"/><path d="M30,11.45929V12a1,1,0,0,0,2,0v-.36823l.01074.003A7.1389,7.1389,0,0,0,34,12a1,1,0,0,0,0-2,5.59559,5.59559,0,0,1-1.43945-.28809c-1.416-.40527-3.55859-1.01758-5.39258,1.7334A1,1,0,1,0,28.832,12.55469,2.65619,2.65619,0,0,1,30,11.45929Z"/></g></svg>